<svg id="MET_Blog_Icon" xmlns="http://www.w3.org/2000/svg" viewBox="0 0 214.44 210.46" width="27.44" height="32" aria-labelledby="metBlogIconTitle" role="img"><title id="metBlogIconTitle">Metrolink Matters Blog Icon</title><path d="M99.74 100.64c-27.86-19.55-54.73-5.21-54.73-5.21V45.91H12.43v92.36c0 65.32 54.24 63.04 54.24 63.04 53.76-1.79 56.36-50.5 56.36-50.5s4.56-30.62-23.29-50.17zm-32.21 67.89c-12.6 0-22.81-10.21-22.81-22.81 0-12.6 10.21-22.81 22.81-22.81 12.6 0 22.81 10.21 22.81 22.81 0 12.59-10.21 22.81-22.81 22.81z"/><path d="M96.95 74.74V50.96s69.73-2.82 69.73 73.36H142.9c.01-.01.5-48.38-45.95-49.58z"/><path d="M96.95 36.89V13.11s104.33-4.75 106.77 111.2h-23.78s3.16-87.54-82.99-87.42z"/></svg>
